<svg xmlns="http://www.w3.org/2000/svg" x="0px" y="0px" width="48" height="48" viewBox="0,0,256,256"
style="fill:#000000;">
<defs><linearGradient x1="35.631" y1="35.808" x2="-12.83" y2="-4.856" gradientUnits="userSpaceOnUse" id="color-1_WrjSybfhrxyM_gr1"><stop offset="0" stop-color="#e6e2e2" stop-opacity="0.14118"></stop><stop offset="1" stop-color="#7f7f7f" stop-opacity="0.94118"></stop></linearGradient><linearGradient x1="40.676" y1="51.666" x2="14.132" y2="5.689" gradientUnits="userSpaceOnUse" id="color-2_WrjSybfhrxyM_gr2"><stop offset="0" stop-color="#e6e2e2" stop-opacity="0.14118"></stop><stop offset="1" stop-color="#7f7f7f" stop-opacity="0.94118"></stop></linearGradient></defs><g fill="none" fill-rule="nonzero" stroke="none" stroke-width="1" stroke-linecap="butt" stroke-linejoin="miter" stroke-miterlimit="10" stroke-dasharray="" stroke-dashoffset="0" font-family="none" font-weight="none" font-size="none" text-anchor="none" style="mix-blend-mode: normal"><g transform="scale(5.33333,5.33333)"><path d="M36.525,12.797c-0.018,-0.002 -0.038,0.006 -0.055,0.006h-0.002c0.022,0 0.044,-0.011 0.055,-0.011c-0.311,-5.296 -4.763,-7.761 -8.693,-7.761h-15.833l-7.006,32.197h10.314l2.423,-11.112c2.478,0 5.537,0 5.537,0c6.354,0 11.582,-3.464 13.005,-10.12c0.25,-1.169 0.313,-2.227 0.255,-3.199z" fill="url(#color-1_WrjSybfhrxyM_gr1)"></path><path d="M36.368,13c0,0 0,0 0,0.011c-0.022,-0.011 -0.033,0 -0.055,0h-12.508c-1.881,0 -3.508,1.31 -3.908,3.148l-6.285,28.841l10.336,-0.011l2.383,-11.053c2.349,0 5.482,0 5.482,0c6.321,0 11.483,-3.431 12.895,-10.038c1.587,-7.456 -3.729,-10.865 -8.34,-10.898z" fill="url(#color-2_WrjSybfhrxyM_gr2)"></path></g></g>
</svg>